<?xml version="1.0" standalone="no"?>
<!DOCTYPE svg PUBLIC "-//W3C//DTD SVG 20010904//EN"
 "http://www.w3.org/TR/2001/REC-SVG-20010904/DTD/svg10.dtd">
<svg version="1.0" xmlns="http://www.w3.org/2000/svg"
 width="3916.000000pt" height="1524.000000pt" viewBox="0 0 3916.000000 1524.000000"
 preserveAspectRatio="xMidYMid meet">
<metadata>
Created by potrace 1.16, written by Peter Selinger 2001-2019
</metadata>
<g transform="translate(0.000000,1524.000000) scale(0.100000,-0.100000)"
fill="#000000" stroke="none">
<path d="M20570 8055 l0 -1945 353 2 352 3 3 133 3 133 56 -51 c148 -136 352
-234 563 -271 104 -18 333 -16 455 5 279 49 508 167 706 365 245 245 375 547
410 951 20 224 -12 505 -82 715 -138 417 -447 728 -838 841 -150 44 -267 57
-446 51 -127 -4 -180 -10 -256 -30 -187 -49 -338 -129 -461 -245 l-68 -64 0
676 0 676 -375 0 -375 0 0 -1945z m1588 259 c42 -8 115 -34 162 -56 70 -33
100 -56 170 -127 71 -71 94 -103 133 -181 75 -155 92 -233 92 -440 -1 -184 -9
-236 -57 -360 -85 -218 -272 -381 -488 -426 -111 -23 -291 -15 -388 19 -205
71 -359 232 -432 450 -41 122 -53 217 -48 369 8 210 59 370 163 506 154 203
427 300 693 246z"/>
<path d="M32130 8055 l0 -1945 375 0 375 0 2 711 3 712 460 -711 460 -711 439
-1 c346 0 437 3 433 13 -2 6 -239 351 -526 766 -289 416 -520 759 -517 767 4
11 843 1097 944 1222 l34 42 -423 0 -424 0 -440 -576 -440 -576 -3 1116 -2
1116 -375 0 -375 0 0 -1945z"/>
<path d="M7144 9219 c-511 -281 -932 -514 -936 -517 -5 -6 1750 -1027 1841
-1071 28 -13 46 -3 960 524 512 295 931 540 931 544 0 5 -1154 642 -1780 983
l-87 48 -929 -511z"/>
<path d="M18700 8976 c-620 -110 -1049 -587 -1131 -1259 -16 -137 -6 -412 20
-541 122 -594 540 -1000 1141 -1108 152 -27 420 -29 565 -5 202 35 395 110
560 218 97 64 279 242 330 323 31 48 35 60 24 71 -8 7 -119 92 -248 189 l-235
177 -25 -33 c-102 -136 -277 -246 -459 -289 -118 -28 -331 -23 -437 11 -162
51 -312 164 -388 291 -39 67 -82 193 -90 266 l-5 43 986 2 987 3 3 120 c8 297
-48 597 -154 824 -172 368 -460 593 -873 682 -123 27 -455 35 -571 15z m447
-631 c148 -47 262 -144 329 -282 31 -64 63 -178 64 -225 0 -17 -35 -18 -595
-18 l-595 0 0 29 c0 17 11 65 25 108 72 227 250 381 480 417 69 10 213 -4 292
-29z"/>
<path d="M25075 8975 c-214 -40 -417 -142 -557 -280 l-58 -56 0 141 0 140
-350 0 -350 0 0 -1905 0 -1905 375 0 375 0 0 636 0 637 53 -49 c145 -136 319
-224 537 -270 116 -24 349 -24 485 0 626 113 1027 606 1074 1324 54 801 -369
1424 -1069 1577 -108 24 -410 29 -515 10z m273 -661 c268 -55 461 -250 534
-541 32 -127 32 -369 0 -498 -87 -349 -348 -565 -681 -565 -126 0 -218 21
-320 71 -144 71 -265 206 -329 369 -49 123 -57 175 -57 370 0 207 13 276 80
415 141 294 450 445 773 379z"/>
<path d="M27794 8975 c-131 -20 -262 -52 -394 -97 -121 -41 -376 -162 -423
-200 l-27 -23 135 -245 c75 -134 139 -248 143 -252 5 -5 47 10 94 31 304 141
635 190 863 130 114 -30 215 -114 263 -217 24 -51 27 -71 30 -195 l4 -137 -69
34 c-148 74 -325 110 -543 109 -547 -2 -933 -257 -1052 -694 -31 -118 -32
-356 0 -472 114 -415 458 -666 962 -702 255 -18 515 53 678 185 35 28 65 50
66 48 3 -3 18 -58 36 -125 l11 -43 330 0 330 0 -4 1013 c-3 900 -5 1020 -20
1087 -97 432 -333 662 -774 751 -139 28 -496 36 -639 14z m430 -1614 c82 -29
136 -63 180 -112 134 -147 123 -370 -22 -501 -88 -79 -205 -118 -362 -118
-213 0 -370 81 -442 228 -30 59 -33 76 -33 152 0 76 3 93 33 152 51 104 144
175 282 213 81 22 285 14 364 -14z"/>
<path d="M30725 8975 c-683 -107 -1165 -614 -1235 -1300 -54 -519 143 -1020
514 -1310 276 -215 592 -319 971 -319 240 0 428 43 634 144 118 58 254 148
248 164 -2 6 -48 145 -101 308 l-96 297 -108 -73 c-121 -82 -220 -126 -349
-157 -73 -18 -109 -20 -218 -17 -113 4 -143 9 -225 37 -52 18 -115 44 -140 58
-178 103 -302 267 -362 478 -32 116 -32 343 1 465 93 344 350 558 696 577 225
12 452 -65 635 -218 l60 -50 11 28 c25 65 199 588 199 599 0 16 -142 110 -236
157 -109 55 -268 106 -392 128 -133 22 -379 25 -507 4z"/>
<path d="M13160 8893 c5 -16 181 -604 390 -1308 210 -704 395 -1324 411 -1378
l30 -97 416 2 417 3 255 882 c140 485 258 880 261 877 3 -3 118 -400 256 -882
l251 -877 418 0 418 0 413 1375 c227 756 416 1387 419 1403 l7 27 -406 0 -405
0 -10 -37 c-6 -21 -114 -453 -241 -960 -126 -507 -233 -931 -238 -942 -5 -14
-86 276 -268 957 l-261 977 -354 3 -354 2 -265 -980 c-145 -539 -265 -978
-266 -977 -4 3 -484 1941 -484 1951 0 3 -184 6 -409 6 l-410 0 9 -27z"/>
<path d="M6072 7434 l3 -1018 915 -503 c503 -277 923 -508 933 -514 16 -9 17
40 17 983 l0 993 -926 535 c-510 294 -930 537 -935 538 -5 2 -8 -426 -7 -1014z"/>
<path d="M9138 7913 l-928 -536 0 -993 0 -992 933 513 932 513 3 1016 c1 559
-1 1016 -5 1015 -5 0 -425 -241 -935 -536z"/>
</g>
</svg>
